<svg xmlns="http://www.w3.org/2000/svg" width="19" height="19" viewBox="0 0 19 19">
  <g id="phone-call" transform="translate(-0.344 0)">
    <g id="Grupo_15" data-name="Grupo 15" transform="translate(0.344 0)">
      <path id="Caminho_7" data-name="Caminho 7" d="M15.332,38.052a1.868,1.868,0,0,0-1.354-.62,1.932,1.932,0,0,0-1.37.616l-1.266,1.26c-.1-.056-.208-.108-.308-.16-.144-.072-.28-.14-.4-.212a13.753,13.753,0,0,1-3.3-3,8.1,8.1,0,0,1-1.082-1.7c.329-.3.633-.612.929-.912.112-.112.224-.228.337-.34a1.834,1.834,0,0,0,0-2.768L6.43,29.118c-.124-.124-.252-.252-.373-.38-.24-.248-.493-.5-.753-.744a1.9,1.9,0,0,0-1.342-.588,1.964,1.964,0,0,0-1.362.588L2.592,28,1.23,29.374a2.925,2.925,0,0,0-.869,1.86A7,7,0,0,0,.874,34.2a17.22,17.22,0,0,0,3.065,5.1,18.849,18.849,0,0,0,6.278,4.909,9.792,9.792,0,0,0,3.526,1.04c.084,0,.172.008.252.008a3.021,3.021,0,0,0,2.312-.992c0-.008.012-.012.016-.02a9.1,9.1,0,0,1,.7-.724c.172-.164.349-.336.521-.516a1.994,1.994,0,0,0,.6-1.384,1.921,1.921,0,0,0-.617-1.372Zm1.434,4.213s0,0,0,0c-.156.168-.316.32-.489.488a10.527,10.527,0,0,0-.773.8A1.933,1.933,0,0,1,14,44.188c-.06,0-.124,0-.184,0a8.7,8.7,0,0,1-3.125-.936,17.793,17.793,0,0,1-5.913-4.625,16.237,16.237,0,0,1-2.885-4.8,5.7,5.7,0,0,1-.449-2.5A1.835,1.835,0,0,1,2,30.134L3.362,28.77a.911.911,0,0,1,.609-.284.857.857,0,0,1,.585.28l.012.012c.244.228.477.464.721.716.124.128.252.256.381.388l1.094,1.092a.763.763,0,0,1,0,1.24c-.116.116-.228.232-.345.344-.337.344-.657.664-1.006.976-.008.008-.016.012-.02.02a.815.815,0,0,0-.208.908L5.2,34.5a8.766,8.766,0,0,0,1.294,2.108l0,0a14.7,14.7,0,0,0,3.558,3.232,5.474,5.474,0,0,0,.493.268c.144.072.28.14.4.212.016.008.032.02.048.028a.869.869,0,0,0,.4.1A.857.857,0,0,0,12,40.176l1.37-1.368a.907.907,0,0,1,.6-.3.816.816,0,0,1,.577.292l.008.008,2.207,2.2A.79.79,0,0,1,16.767,42.264Z" transform="translate(-0.344 -26.265)" fill="#fff"/>
      <path id="Caminho_8" data-name="Caminho 8" d="M245.407,87.041a5.36,5.36,0,0,1,4.365,4.365.559.559,0,0,0,.554.466.744.744,0,0,0,.1-.008.563.563,0,0,0,.462-.65,6.481,6.481,0,0,0-5.281-5.281.565.565,0,0,0-.65.458A.556.556,0,0,0,245.407,87.041Z" transform="translate(-235.278 -82.537)" fill="#fff"/>
      <path id="Caminho_9" data-name="Caminho 9" d="M258.125,8.705a10.672,10.672,0,0,0-8.7-8.7.561.561,0,1,0-.183,1.108,9.533,9.533,0,0,1,7.772,7.772.559.559,0,0,0,.554.466.744.744,0,0,0,.1-.008A.552.552,0,0,0,258.125,8.705Z" transform="translate(-239.133 0)" fill="#fff"/>
    </g>
  </g>
</svg>
